<svg width="11" height="11" viewBox="0 0 11 11" fill="none" xmlns="http://www.w3.org/2000/svg">
<path fill-rule="evenodd" clip-rule="evenodd" d="M4.89361 0.469858C5.11171 -0.156619 5.99769 
-0.15662 6.21578 0.469857L7.07498 2.93791C7.17292 3.21924 7.43818 3.40777 7.73607 3.40777H10.4081C11.0978 
3.40777 11.3718 4.30002 10.801 4.68712L8.72421 6.09538C8.46179 6.27333 8.35175 6.60544 8.456 6.90488L9.2685 
9.23881C9.49009 9.87533 8.77238 10.4266 8.21455 10.0483L5.94756 8.51105C5.71035 8.3502 5.39904 8.3502 5.16183 
8.51105L2.89484 10.0483C2.33702 10.4266 1.6193 9.87533 1.84089 9.23881L2.6534 6.90488C2.75764 6.60544 2.6476 
6.27333 2.38518 6.09538L0.308434 4.68712C-0.262431 4.30002 0.0115627 3.40777 0.701302 3.40777H3.37333C3.67122 
3.40777 3.93647 3.21924 4.03441 2.93791L4.89361 0.469858ZM22.8936" fill="#F9CE1E"/>
</svg>
